<svg xmlns="http://www.w3.org/2000/svg" xmlns:xlink="http://www.w3.org/1999/xlink" width="6912" zoomAndPan="magnify" viewBox="0 0 5184 2592.000001" height="3456" preserveAspectRatio="xMidYMid meet" version="1.0"><defs><clipPath id="37e850c9e0"><path d="M 1 349 L 872 349 L 872 389 L 1 389 Z M 1 349 " clip-rule="nonzero"/></clipPath><clipPath id="2b0eaa20c8"><path d="M 1 407 L 872 407 L 872 427 L 1 427 Z M 1 407 " clip-rule="nonzero"/></clipPath><clipPath id="34cf9ab53f"><path d="M 1 465 L 872 465 L 872 485 L 1 485 Z M 1 465 " clip-rule="nonzero"/></clipPath><clipPath id="b8ca76c6ba"><path d="M 1 561 L 872 561 L 872 581 L 1 581 Z M 1 561 " clip-rule="nonzero"/></clipPath><clipPath id="22f3d1769e"><path d="M 1 618 L 872 618 L 872 677 L 1 677 Z M 1 618 " clip-rule="nonzero"/></clipPath><clipPath id="cf841ef04f"><path d="M 1 695 L 872 695 L 872 734 L 1 734 Z M 1 695 " clip-rule="nonzero"/></clipPath><clipPath id="d9e24aef2e"><path d="M 1 772 L 872 772 L 872 811 L 1 811 Z M 1 772 " clip-rule="nonzero"/></clipPath><clipPath id="58eb635023"><path d="M 1 830 L 872 830 L 872 869 L 1 869 Z M 1 830 " clip-rule="nonzero"/></clipPath><clipPath id="d87585e313"><path d="M 1 906 L 872 906 L 872 946 L 1 946 Z M 1 906 " clip-rule="nonzero"/></clipPath><clipPath id="e654ab34be"><path d="M 1 983 L 872 983 L 872 1023 L 1 1023 Z M 1 983 " clip-rule="nonzero"/></clipPath><clipPath id="44bedd148b"><path d="M 1 1060 L 872 1060 L 872 1080 L 1 1080 Z M 1 1060 " clip-rule="nonzero"/></clipPath><clipPath id="675d144753"><path d="M 1 1098 L 872 1098 L 872 1157 L 1 1157 Z M 1 1098 " clip-rule="nonzero"/></clipPath><clipPath id="42e4edc6c5"><path d="M 1 1195 L 872 1195 L 872 1215 L 1 1215 Z M 1 1195 " clip-rule="nonzero"/></clipPath><clipPath id="524fa27294"><path d="M 1 1233 L 872 1233 L 872 1292 L 1 1292 Z M 1 1233 " clip-rule="nonzero"/></clipPath><clipPath id="53aaa3f8a4"><path d="M 1 1310 L 872 1310 L 872 1388 L 1 1388 Z M 1 1310 " clip-rule="nonzero"/></clipPath><clipPath id="532183dff0"><path d="M 1 1406 L 872 1406 L 872 1465 L 1 1465 Z M 1 1406 " clip-rule="nonzero"/></clipPath><clipPath id="ca15fed71c"><path d="M 1 1483 L 872 1483 L 872 1503 L 1 1503 Z M 1 1483 " clip-rule="nonzero"/></clipPath><clipPath id="daa81d4d05"><path d="M 1 1560 L 872 1560 L 872 1599 L 1 1599 Z M 1 1560 " clip-rule="nonzero"/></clipPath><clipPath id="d2682b8d6c"><path d="M 1 1617 L 872 1617 L 872 1637 L 1 1637 Z M 1 1617 " clip-rule="nonzero"/></clipPath><clipPath id="fae95783fa"><path d="M 1 1656 L 872 1656 L 872 1714 L 1 1714 Z M 1 1656 " clip-rule="nonzero"/></clipPath><clipPath id="8d0ae15008"><path d="M 1 1733 L 872 1733 L 872 1772 L 1 1772 Z M 1 1733 " clip-rule="nonzero"/></clipPath><clipPath id="1b64832755"><path d="M 1 1829 L 872 1829 L 872 1849 L 1 1849 Z M 1 1829 " clip-rule="nonzero"/></clipPath><clipPath id="e14bf1eb7c"><path d="M 1 1867 L 872 1867 L 872 1945 L 1 1945 Z M 1 1867 " clip-rule="nonzero"/></clipPath><clipPath id="ef8b43536b"><path d="M 1 1963 L 872 1963 L 872 2022 L 1 2022 Z M 1 1963 " clip-rule="nonzero"/></clipPath><clipPath id="70e260528f"><path d="M 1 2040 L 872 2040 L 872 2079 L 1 2079 Z M 1 2040 " clip-rule="nonzero"/></clipPath><clipPath id="9274247a69"><path d="M 1 2098 L 872 2098 L 872 2137 L 1 2137 Z M 1 2098 " clip-rule="nonzero"/></clipPath><clipPath id="0bb947952a"><path d="M 1 2174 L 872 2174 L 872 2214 L 1 2214 Z M 1 2174 " clip-rule="nonzero"/></clipPath><clipPath id="d5c66ce935"><path d="M 1 2251 L 872 2251 L 872 2291 L 1 2291 Z M 1 2251 " clip-rule="nonzero"/></clipPath><clipPath id="52a54f20ae"><path d="M 1 8.59375 L 5182 8.59375 L 5182 2582.351562 L 1 2582.351562 Z M 1 8.59375 " clip-rule="nonzero"/></clipPath><clipPath id="5e412313c6"><path d="M 12.996094 229.023438 L 3030 229.023438 L 3030 2361.976562 L 12.996094 2361.976562 Z M 12.996094 229.023438 " clip-rule="nonzero"/></clipPath><clipPath id="99b18d5348"><path d="M 1 16 L 30 16 L 30 2575 L 1 2575 Z M 1 16 " clip-rule="nonzero"/></clipPath><clipPath id="bd4ecd41df"><path d="M 1 2549 L 81 2549 L 81 2583 L 1 2583 Z M 1 2549 " clip-rule="nonzero"/></clipPath><clipPath id="701dd3ee8e"><path d="M 1 8 L 81 8 L 81 42 L 1 42 Z M 1 8 " clip-rule="nonzero"/></clipPath></defs><g clip-path="url(#37e850c9e0)"><path fill="#3a0ca3" d="M -89.648438 349.773438 L 871.039062 349.773438 L 871.039062 388.132812 L -89.648438 388.132812 Z M -89.648438 349.773438 " fill-opacity="1" fill-rule="nonzero"/></g><g clip-path="url(#2b0eaa20c8)"><path fill="#3a0ca3" d="M -89.648438 407.480469 L 871.039062 407.480469 L 871.039062 426.660156 L -89.648438 426.660156 Z M -89.648438 407.480469 " fill-opacity="1" fill-rule="nonzero"/></g><g clip-path="url(#34cf9ab53f)"><path fill="#3a0ca3" d="M -89.648438 465.019531 L 871.039062 465.019531 L 871.039062 484.199219 L -89.648438 484.199219 Z M -89.648438 465.019531 " fill-opacity="1" fill-rule="nonzero"/></g><g clip-path="url(#b8ca76c6ba)"><path fill="#3a0ca3" d="M -89.648438 561.089844 L 871.039062 561.089844 L 871.039062 580.269531 L -89.648438 580.269531 Z M -89.648438 561.089844 " fill-opacity="1" fill-rule="nonzero"/></g><g clip-path="url(#22f3d1769e)"><path fill="#3a0ca3" d="M -89.648438 618.796875 L 871.039062 618.796875 L 871.039062 676.507812 L -89.648438 676.507812 Z M -89.648438 618.796875 " fill-opacity="1" fill-rule="nonzero"/></g><g clip-path="url(#cf841ef04f)"><path fill="#3a0ca3" d="M -89.648438 695.519531 L 871.039062 695.519531 L 871.039062 733.878906 L -89.648438 733.878906 Z M -89.648438 695.519531 " fill-opacity="1" fill-rule="nonzero"/></g><g clip-path="url(#d9e24aef2e)"><path fill="#3a0ca3" d="M -89.648438 772.40625 L 871.039062 772.40625 L 871.039062 810.769531 L -89.648438 810.769531 Z M -89.648438 772.40625 " fill-opacity="1" fill-rule="nonzero"/></g><g clip-path="url(#58eb635023)"><path fill="#3a0ca3" d="M -89.648438 830.117188 L 871.039062 830.117188 L 871.039062 868.476562 L -89.648438 868.476562 Z M -89.648438 830.117188 " fill-opacity="1" fill-rule="nonzero"/></g><g clip-path="url(#d87585e313)"><path fill="#3a0ca3" d="M -89.648438 906.835938 L 871.039062 906.835938 L 871.039062 945.195312 L -89.648438 945.195312 Z M -89.648438 906.835938 " fill-opacity="1" fill-rule="nonzero"/></g><g clip-path="url(#e654ab34be)"><path fill="#3a0ca3" d="M -89.648438 983.726562 L 871.039062 983.726562 L 871.039062 1022.085938 L -89.648438 1022.085938 Z M -89.648438 983.726562 " fill-opacity="1" fill-rule="nonzero"/></g><g clip-path="url(#44bedd148b)"><path fill="#3a0ca3" d="M -89.648438 1060.613281 L 871.039062 1060.613281 L 871.039062 1079.792969 L -89.648438 1079.792969 Z M -89.648438 1060.613281 " fill-opacity="1" fill-rule="nonzero"/></g><g clip-path="url(#675d144753)"><path fill="#3a0ca3" d="M -89.648438 1098.976562 L 871.039062 1098.976562 L 871.039062 1156.683594 L -89.648438 1156.683594 Z M -89.648438 1098.976562 " fill-opacity="1" fill-rule="nonzero"/></g><g clip-path="url(#42e4edc6c5)"><path fill="#3a0ca3" d="M -89.648438 1195.042969 L 871.039062 1195.042969 L 871.039062 1214.222656 L -89.648438 1214.222656 Z M -89.648438 1195.042969 " fill-opacity="1" fill-rule="nonzero"/></g><g clip-path="url(#524fa27294)"><path fill="#3a0ca3" d="M -89.648438 1233.570312 L 871.039062 1233.570312 L 871.039062 1291.28125 L -89.648438 1291.28125 Z M -89.648438 1233.570312 " fill-opacity="1" fill-rule="nonzero"/></g><g clip-path="url(#53aaa3f8a4)"><path fill="#3a0ca3" d="M -89.648438 1310.292969 L 871.039062 1310.292969 L 871.039062 1387.179688 L -89.648438 1387.179688 Z M -89.648438 1310.292969 " fill-opacity="1" fill-rule="nonzero"/></g><g clip-path="url(#532183dff0)"><path fill="#3a0ca3" d="M -89.648438 1406.363281 L 871.039062 1406.363281 L 871.039062 1464.070312 L -89.648438 1464.070312 Z M -89.648438 1406.363281 " fill-opacity="1" fill-rule="nonzero"/></g><g clip-path="url(#ca15fed71c)"><path fill="#3a0ca3" d="M -89.648438 1483.25 L 871.039062 1483.25 L 871.039062 1502.429688 L -89.648438 1502.429688 Z M -89.648438 1483.25 " fill-opacity="1" fill-rule="nonzero"/></g><g clip-path="url(#daa81d4d05)"><path fill="#3a0ca3" d="M -89.648438 1560.140625 L 871.039062 1560.140625 L 871.039062 1598.5 L -89.648438 1598.5 Z M -89.648438 1560.140625 " fill-opacity="1" fill-rule="nonzero"/></g><g clip-path="url(#d2682b8d6c)"><path fill="#3a0ca3" d="M -89.648438 1617.679688 L 871.039062 1617.679688 L 871.039062 1636.859375 L -89.648438 1636.859375 Z M -89.648438 1617.679688 " fill-opacity="1" fill-rule="nonzero"/></g><g clip-path="url(#fae95783fa)"><path fill="#3a0ca3" d="M -89.648438 1656.207031 L 871.039062 1656.207031 L 871.039062 1713.917969 L -89.648438 1713.917969 Z M -89.648438 1656.207031 " fill-opacity="1" fill-rule="nonzero"/></g><g clip-path="url(#8d0ae15008)"><path fill="#3a0ca3" d="M -89.648438 1733.097656 L 871.039062 1733.097656 L 871.039062 1771.457031 L -89.648438 1771.457031 Z M -89.648438 1733.097656 " fill-opacity="1" fill-rule="nonzero"/></g><g clip-path="url(#1b64832755)"><path fill="#3a0ca3" d="M -89.648438 1829.164062 L 871.039062 1829.164062 L 871.039062 1848.34375 L -89.648438 1848.34375 Z M -89.648438 1829.164062 " fill-opacity="1" fill-rule="nonzero"/></g><g clip-path="url(#e14bf1eb7c)"><path fill="#3a0ca3" d="M -89.648438 1867.527344 L 871.039062 1867.527344 L 871.039062 1944.414062 L -89.648438 1944.414062 Z M -89.648438 1867.527344 " fill-opacity="1" fill-rule="nonzero"/></g><g clip-path="url(#ef8b43536b)"><path fill="#3a0ca3" d="M -89.648438 1963.59375 L 871.039062 1963.59375 L 871.039062 2021.304688 L -89.648438 2021.304688 Z M -89.648438 1963.59375 " fill-opacity="1" fill-rule="nonzero"/></g><g clip-path="url(#70e260528f)"><path fill="#3a0ca3" d="M -89.648438 2040.484375 L 871.039062 2040.484375 L 871.039062 2078.84375 L -89.648438 2078.84375 Z M -89.648438 2040.484375 " fill-opacity="1" fill-rule="nonzero"/></g><g clip-path="url(#9274247a69)"><path fill="#3a0ca3" d="M -89.648438 2098.023438 L 871.039062 2098.023438 L 871.039062 2136.382812 L -89.648438 2136.382812 Z M -89.648438 2098.023438 " fill-opacity="1" fill-rule="nonzero"/></g><g clip-path="url(#0bb947952a)"><path fill="#3a0ca3" d="M -89.648438 2174.914062 L 871.039062 2174.914062 L 871.039062 2213.273438 L -89.648438 2213.273438 Z M -89.648438 2174.914062 " fill-opacity="1" fill-rule="nonzero"/></g><g clip-path="url(#d5c66ce935)"><path fill="#3a0ca3" d="M -89.648438 2251.800781 L 871.039062 2251.800781 L 871.039062 2290.160156 L -89.648438 2290.160156 Z M -89.648438 2251.800781 " fill-opacity="1" fill-rule="nonzero"/></g><g clip-path="url(#52a54f20ae)"><path fill="#3a0ca3" d="M 5181.015625 2582.742188 L -582.105469 2582.742188 L -582.105469 2268.625 L -556.027344 2268.625 C -469.382812 2268.625 -398.886719 2198.128906 -398.886719 2111.484375 C -398.886719 2024.835938 -469.382812 1954.339844 -556.027344 1954.339844 L -582.105469 1954.339844 L -582.105469 1719.132812 L -556.027344 1719.132812 C -469.382812 1719.132812 -398.886719 1648.636719 -398.886719 1561.988281 C -398.886719 1475.34375 -469.382812 1404.847656 -556.027344 1404.847656 L -582.105469 1404.847656 L -582.105469 1169.132812 L -556.027344 1169.132812 C -469.382812 1169.132812 -398.886719 1098.636719 -398.886719 1011.992188 C -398.886719 925.34375 -469.382812 854.847656 -556.027344 854.847656 L -582.105469 854.847656 L -582.105469 619.640625 L -556.027344 619.640625 C -469.382812 619.640625 -398.886719 549.144531 -398.886719 462.496094 C -398.886719 375.851562 -469.382812 305.355469 -556.027344 305.355469 L -582.105469 305.355469 L -582.105469 -8.761719 L 5181.015625 -8.761719 L 5181.015625 305.355469 L 5154.941406 305.355469 C 5068.292969 305.355469 4997.796875 375.851562 4997.796875 462.496094 C 4997.796875 549.144531 5068.292969 619.640625 5154.941406 619.640625 L 5181.015625 619.640625 L 5181.015625 854.847656 L 5154.941406 854.847656 C 5068.292969 854.847656 4997.796875 925.34375 4997.796875 1011.992188 C 4997.796875 1098.636719 5068.292969 1169.132812 5154.941406 1169.132812 L 5181.015625 1169.132812 L 5181.015625 1404.34375 L 5154.941406 1404.34375 C 5068.292969 1404.34375 4997.796875 1474.839844 4997.796875 1561.484375 C 4997.796875 1648.132812 5068.292969 1718.628906 5154.941406 1718.628906 L 5181.015625 1718.628906 L 5181.015625 1953.835938 L 5154.941406 1953.835938 C 5068.292969 1953.835938 4997.796875 2024.332031 4997.796875 2110.980469 C 4997.796875 2197.625 5068.292969 2268.121094 5154.941406 2268.121094 L 5181.015625 2268.121094 Z M -529.949219 2530.753906 L 5129.027344 2530.753906 L 5129.027344 2319.101562 C 5025.894531 2306.3125 4945.808594 2217.984375 4945.808594 2111.484375 C 4945.808594 2004.984375 5025.894531 1916.652344 5129.027344 1903.867188 L 5129.027344 1769.4375 C 5025.894531 1756.652344 4945.808594 1668.320312 4945.808594 1561.820312 C 4945.808594 1455.320312 5025.894531 1366.992188 5129.027344 1354.207031 L 5129.027344 1219.609375 C 5025.894531 1206.820312 4945.808594 1118.492188 4945.808594 1011.992188 C 4945.808594 905.492188 5025.894531 817.160156 5129.027344 804.375 L 5129.027344 669.945312 C 5025.894531 657.160156 4945.808594 568.828125 4945.808594 462.328125 C 4945.808594 355.828125 5025.894531 267.5 5129.027344 254.710938 L 5129.027344 43.058594 L -529.949219 43.058594 L -529.949219 254.710938 C -426.816406 267.5 -346.730469 355.828125 -346.730469 462.328125 C -346.730469 568.828125 -426.816406 657.160156 -529.949219 669.945312 L -529.949219 804.375 C -426.816406 817.160156 -346.730469 905.492188 -346.730469 1011.992188 C -346.730469 1118.492188 -426.816406 1206.820312 -529.949219 1219.609375 L -529.949219 1354.035156 C -426.816406 1366.824219 -346.730469 1455.152344 -346.730469 1561.652344 C -346.730469 1668.152344 -426.816406 1756.484375 -529.949219 1769.269531 L -529.949219 1903.699219 C -426.816406 1916.484375 -346.730469 2004.816406 -346.730469 2111.316406 C -346.730469 2217.816406 -426.816406 2306.144531 -529.949219 2318.933594 Z M -529.949219 2530.753906 " fill-opacity="1" fill-rule="nonzero"/></g><path fill="#3a0ca3" d="M 1190.707031 16.980469 L 1242.695312 16.980469 L 1242.695312 2548.757812 L 1190.707031 2548.757812 Z M 1190.707031 16.980469 " fill-opacity="1" fill-rule="nonzero"/><g clip-path="url(#5e412313c6)"><path fill="#ffffff" d="M 12.996094 229.023438 L 3029.128906 229.023438 L 3029.128906 2361.976562 L 12.996094 2361.976562 Z M 12.996094 229.023438 " fill-opacity="1" fill-rule="nonzero"/></g><g clip-path="url(#99b18d5348)"><path stroke-linecap="butt" transform="matrix(0, -0.749711, 0.749711, 0, -3.874513, 2582.835561)" fill="none" stroke-linejoin="miter" d="M 33.752099 22.497611 L 3400.472501 22.497611 " stroke="#3a0ca3" stroke-width="45" stroke-opacity="1" stroke-miterlimit="4"/></g><g clip-path="url(#bd4ecd41df)"><path stroke-linecap="round" transform="matrix(0, -0.749711, 0.749711, 0, -3.874513, 2582.835561)" fill="none" stroke-linejoin="round" d="M 22.497759 -45.002381 L 22.497759 89.997604 " stroke="#3a0ca3" stroke-width="45" stroke-opacity="1" stroke-miterlimit="4"/></g><g clip-path="url(#701dd3ee8e)"><path stroke-linecap="round" transform="matrix(0, -0.749711, 0.749711, 0, -3.874513, 2582.835561)" fill="none" stroke-linejoin="round" d="M 3411.721632 -45.002381 L 3411.721632 89.997604 " stroke="#3a0ca3" stroke-width="45" stroke-opacity="1" stroke-miterlimit="4"/></g></svg>