<svg width="40" height="30" viewBox="0 0 24 24" fill="none" xmlns="http://www.w3.org/2000/svg">
<path fill-rule="evenodd" clip-rule="evenodd" d="M9.99996 1.99992C10.0001 1.79137 9.93513 1.58797 9.814 1.41821C9.69287 1.24844 9.52169 1.12079 9.32442 1.05312C9.12715 0.985457 8.91366 0.98116 8.71383 1.04083C8.514 1.10051 8.33783 1.22116 8.20996 1.38592L1.20996 10.3859C1.07341 10.5615 0.999268 10.7775 0.999268 10.9999C0.999268 11.2223 1.07341 11.4384 1.20996 11.6139L8.20996 20.6139C8.33783 20.7787 8.514 20.8993 8.71383 20.959C8.91366 21.0187 9.12715 21.0144 9.32442 20.9467C9.52169 20.879 9.69287 20.7514 9.814 20.5816C9.93513 20.4119 10.0001 20.2085 9.99996 19.9999V16.0099C15.379 16.1219 17.963 17.1429 19.261 18.2529C20.495 19.3079 20.721 20.5489 20.956 21.8489L21.017 22.1839C21.0618 22.4236 21.1928 22.6387 21.3851 22.7886C21.5774 22.9385 21.8179 23.013 22.0614 22.998C22.3048 22.983 22.5343 22.8796 22.7068 22.7072C22.8793 22.5348 22.9828 22.3053 22.998 22.0619C23.169 19.3139 22.912 15.3319 20.971 12.0009C19.087 8.76792 15.695 6.28192 9.99996 6.02192V1.99992Z" fill="white"/>
</svg>
