<svg width="45" height="25" viewBox="0 0 24 25" fill="none" xmlns="http://www.w3.org/2000/svg">
<path fill-rule="evenodd" clip-rule="evenodd" d="M22.5625 2.375H20.125V0.6875H18.5V2.375H5.5V0.6875H3.875V2.375H1.4375L0.625 3.21875V23.4688L1.4375 24.3125H22.5625L23.375 23.4688V3.21875L22.5625 2.375ZM21.75 22.625H2.25V7.4375H21.75V22.625ZM21.75 5.75H2.25V4.0625H21.75V5.75ZM5.5 12.5H3.875V14.1875H5.5V12.5ZM3.875 15.875H5.5V17.5625H3.875V15.875ZM5.5 19.25H3.875V20.9375H5.5V19.25ZM8.75 12.5H10.375V14.1875H8.75V12.5ZM10.375 15.875H8.75V17.5625H10.375V15.875ZM8.75 19.25H10.375V20.9375H8.75V19.25ZM10.375 9.125H8.75V10.8125H10.375V9.125ZM13.625 12.5H15.25V14.1875H13.625V12.5ZM15.25 15.875H13.625V17.5625H15.25V15.875ZM13.625 19.25H15.25V20.9375H13.625V19.25ZM15.25 9.125H13.625V10.8125H15.25V9.125ZM18.5 12.5H20.125V14.1875H18.5V12.5ZM20.125 15.875H18.5V17.5625H20.125V15.875ZM18.5 9.125H20.125V10.8125H18.5V9.125Z" fill="#3a0ca3"/>
</svg>
