<svg width="35" height="60" viewBox="0 0 57 73" fill="none" xmlns="http://www.w3.org/2000/svg">
<path d="M49.2955 28.1944C49.0722 27.9374 48.7963 27.7313 48.4866 27.59C48.1769 27.4486 47.8405 27.3753 47.5 27.375H14.6799L14.2168 24.6105C14.1246 24.0559 13.8386 23.5521 13.4098 23.1885C12.981 22.8249 12.4372 22.6253 11.875 22.625H6.53125C5.90136 22.625 5.29727 22.8752 4.85187 23.3206C4.40647 23.766 4.15625 24.3701 4.15625 25C4.15625 25.6299 4.40647 26.234 4.85187 26.6794C5.29727 27.1248 5.90136 27.375 6.53125 27.375H9.86337L14.2809 53.8895L14.3878 54.184L14.516 54.5426L14.801 54.9678L15.0266 55.2337L15.485 55.5425L15.751 55.6969C16.0272 55.8123 16.3233 55.8728 16.6226 55.875H42.75C43.3799 55.875 43.984 55.6248 44.4294 55.1794C44.8748 54.734 45.125 54.1299 45.125 53.5C45.125 52.8701 44.8748 52.266 44.4294 51.8206C43.984 51.3752 43.3799 51.125 42.75 51.125H18.6366L18.2424 48.75H45.125C45.6965 48.7501 46.2489 48.5441 46.6808 48.1698C47.1127 47.7955 47.3951 47.278 47.4762 46.7123L49.8512 30.0873C49.8993 29.7503 49.8746 29.407 49.7788 29.0805C49.6829 28.754 49.5181 28.4518 49.2955 28.1944ZM44.7616 32.125L44.0848 36.875H35.625V32.125H44.7616ZM33.25 32.125V36.875H26.125V32.125H33.25ZM33.25 39.25V44H26.125V39.25H33.25ZM23.75 32.125V36.875H16.625L16.2735 36.9462L15.4707 32.125H23.75ZM16.6582 39.25H23.75V44H17.4491L16.6582 39.25ZM35.625 44V39.25H43.7427L43.0659 44H35.625Z" fill="#FFE45E"/>
<path d="M20.1875 65.375C22.155 65.375 23.75 63.78 23.75 61.8125C23.75 59.845 22.155 58.25 20.1875 58.25C18.22 58.25 16.625 59.845 16.625 61.8125C16.625 63.78 18.22 65.375 20.1875 65.375Z" fill="#FFE45E"/>
<path d="M41.5625 65.375C43.53 65.375 45.125 63.78 45.125 61.8125C45.125 59.845 43.53 58.25 41.5625 58.25C39.595 58.25 38 59.845 38 61.8125C38 63.78 39.595 65.375 41.5625 65.375Z" fill="#FFE45E"/>
<g clip-path="url(#clip0_4_9)">
<path fill-rule="evenodd" clip-rule="evenodd" d="M40.4065 8.87549L42.1651 10.7743C42.3996 11.0278 42.559 11.3416 42.6254 11.6805C42.6917 12.0194 42.6625 12.3701 42.541 12.6934L42.4965 12.8023C42.2653 13.3157 42.1881 13.8851 42.2742 14.4415C42.3603 14.9979 42.6061 15.5174 42.9816 15.9369C43.3572 16.3564 43.8464 16.6578 44.39 16.8047C44.9335 16.9516 45.508 16.9375 46.0437 16.7643L46.1638 16.7227C46.4961 16.5992 46.8575 16.5772 47.2022 16.6594C47.547 16.7416 47.8596 16.9243 48.1004 17.1844L49.8909 19.1177C50.0986 19.3418 50.2601 19.6047 50.3661 19.8913C50.4722 20.1778 50.5208 20.4825 50.5091 20.7878C50.4974 21.0932 50.4257 21.3932 50.298 21.6709C50.1704 21.9485 49.9893 22.1982 49.7651 22.4059L31.8402 39.0035C31.3874 39.4226 30.7867 39.6446 30.1702 39.6208C29.5537 39.597 28.9719 39.3293 28.5528 38.8766L26.8685 37.0576C26.6177 36.7869 26.4456 36.453 26.3706 36.0917C26.2957 35.7304 26.3208 35.3556 26.4432 35.0075L26.4891 34.8912C26.7082 34.3748 26.7733 33.8061 26.6766 33.2535C26.5798 32.7009 26.3254 32.1881 25.9439 31.7768C25.5623 31.3656 25.07 31.0734 24.5263 30.9355C23.9825 30.7977 23.4105 30.82 22.8791 30.9998C22.5114 31.1238 22.1157 31.1388 21.7396 31.0431C21.3636 30.9474 21.0232 30.745 20.7595 30.4603L19.0683 28.6344C18.8607 28.4102 18.6993 28.1473 18.5934 27.8606C18.4874 27.574 18.439 27.2693 18.4508 26.964C18.4626 26.6586 18.5344 26.3586 18.6622 26.081C18.79 25.8034 18.9712 25.5537 19.1955 25.3462L37.1188 8.74937C37.343 8.54169 37.6058 8.38021 37.8924 8.27414C38.179 8.16807 38.4836 8.11949 38.789 8.13117C39.0943 8.14286 39.3944 8.21458 39.672 8.34225C39.9496 8.46991 40.1994 8.65102 40.407 8.87522M38.4287 10.3173L20.6582 26.7725C20.4131 26.9997 20.3982 27.383 20.6254 27.6281L21.8334 28.9329C22.8069 28.646 23.8413 28.6368 24.8198 28.9063C25.7983 29.1757 26.682 29.7131 27.3715 30.4578C28.0613 31.2024 28.5294 32.1249 28.723 33.1212C28.9166 34.1176 28.8281 35.1482 28.4674 36.0969L29.6754 37.4017C29.9031 37.6466 30.2859 37.6617 30.531 37.4345L48.301 20.9796C48.5462 20.7524 48.5611 20.3691 48.3339 20.124L47.1266 18.8195C46.153 19.1062 45.1186 19.1154 44.1401 18.8458C43.1615 18.5763 42.2777 18.0388 41.5882 17.294C40.8984 16.5495 40.4303 15.6271 40.2366 14.6308C40.0429 13.6345 40.1313 12.6039 40.4919 11.6552L39.2839 10.3504C39.1748 10.2326 39.0233 10.1629 38.8628 10.1568C38.7024 10.1506 38.5466 10.2082 38.4287 10.3173ZM43.6162 21.7578C43.7719 21.926 43.8929 22.1232 43.9723 22.3381C44.0518 22.553 44.0882 22.7815 44.0793 23.0105C44.0705 23.2395 44.0166 23.4645 43.9208 23.6726C43.825 23.8808 43.6892 24.0681 43.521 24.2237C43.3529 24.3794 43.1557 24.5004 42.9408 24.5799C42.7258 24.6593 42.4973 24.6957 42.2684 24.6868C42.0394 24.678 41.8144 24.6241 41.6062 24.5284C41.398 24.4326 41.2108 24.2967 41.0551 24.1285C40.7407 23.7889 40.5742 23.3383 40.592 22.8759C40.6098 22.4134 40.8107 21.977 41.1503 21.6626C41.4899 21.3483 41.9405 21.1817 42.403 21.1995C42.8654 21.2174 43.3018 21.4182 43.6162 21.7578ZM40.4549 18.3432C40.7693 18.6828 40.936 19.1334 40.9182 19.5959C40.9004 20.0583 40.6997 20.4948 40.3601 20.8093C40.0205 21.1237 39.5699 21.2904 39.1075 21.2726C38.645 21.2548 38.2085 21.0541 37.8941 20.7145C37.5868 20.3738 37.426 19.9258 37.4466 19.4674C37.4672 19.009 37.6675 18.5772 38.0041 18.2655C38.3408 17.9537 38.7867 17.7871 39.2453 17.8017C39.7039 17.8163 40.1387 18.0107 40.4549 18.3432ZM37.2928 14.9297C37.4485 15.0979 37.5696 15.295 37.6491 15.5099C37.7286 15.7249 37.7649 15.9534 37.7561 16.1823C37.7473 16.4113 37.6935 16.6364 37.5978 16.8445C37.502 17.0527 37.3662 17.24 37.198 17.3957C37.0299 17.5514 36.8327 17.6725 36.6178 17.752C36.4029 17.8315 36.1744 17.8679 35.9454 17.8591C35.7164 17.8503 35.4914 17.7965 35.2832 17.7007C35.075 17.6049 34.8877 17.4691 34.732 17.301C34.4176 16.9614 34.2509 16.5108 34.2687 16.0483C34.2864 15.5858 34.4872 15.1494 34.8268 14.8349C35.1664 14.5205 35.617 14.3538 36.0794 14.3716C36.5419 14.3894 36.9784 14.5901 37.2928 14.9297ZM28.3988 10.9843L30.7003 12.1669C30.734 12.1846 30.7674 12.2032 30.7998 12.2222L20.0128 22.2109L25.2659 11.9897C25.548 11.4411 26.0365 11.027 26.6239 10.8385C27.2114 10.65 27.8501 10.7023 28.3988 10.9843Z" fill="#FFE45E"/>
</g>
<defs>
<clipPath id="clip0_4_9">
<rect width="32.5714" height="32.5714" fill="white" transform="translate(11.5594 15.6891) rotate(-27.7993)"/>
</clipPath>
</defs>
</svg>
