<svg width="45" height="32" viewBox="0 0 32 32" fill="none" xmlns="http://www.w3.org/2000/svg">
<path d="M16 0C12.8355 0 9.74207 0.938383 7.11088 2.69649C4.4797 4.45459 2.42894 6.95345 1.21793 9.87706C0.0069325 12.8007 -0.309921 16.0177 0.307443 19.1214C0.924806 22.2251 2.44866 25.0761 4.6863 27.3137C6.92394 29.5513 9.77487 31.0752 12.8786 31.6926C15.9823 32.3099 19.1993 31.9931 22.1229 30.7821C25.0466 29.5711 27.5454 27.5203 29.3035 24.8891C31.0616 22.2579 32 19.1645 32 16C32 11.7565 30.3143 7.68687 27.3137 4.68629C24.3131 1.68571 20.2435 0 16 0ZM22.2 21.18C22.1274 21.2899 22.0337 21.3844 21.9244 21.458C21.8151 21.5316 21.6924 21.5829 21.5632 21.6089C21.434 21.635 21.301 21.6352 21.1717 21.6096C21.0425 21.5841 20.9196 21.5332 20.81 21.46L14.91 17.46V8.75C14.91 8.48478 15.0154 8.23043 15.2029 8.04289C15.3904 7.85536 15.6448 7.75 15.91 7.75C16.1752 7.75 16.4296 7.85536 16.6171 8.04289C16.8047 8.23043 16.91 8.48478 16.91 8.75V16.4L21.91 19.79C22.0207 19.8619 22.1161 19.9549 22.1907 20.0639C22.2653 20.1728 22.3176 20.2954 22.3445 20.4246C22.3715 20.5538 22.3726 20.6871 22.3478 20.8167C22.323 20.9464 22.2728 21.0699 22.2 21.18ZM21.85 6.23C20.443 5.38191 18.8691 4.84825 17.2364 4.66561C15.6037 4.48298 13.9509 4.6557 12.3912 5.17193C10.8316 5.68815 9.40205 6.53567 8.20074 7.65632C6.99943 8.77697 6.05476 10.1442 5.43155 11.6643C4.80835 13.1844 4.52135 14.8213 4.59025 16.4627C4.65915 18.1041 5.08232 19.7112 5.83072 21.1737C6.57913 22.6362 7.63506 23.9195 8.92606 24.9355C10.2171 25.9516 11.7126 26.6763 13.31 27.06L13 28.63C11.168 28.2036 9.45026 27.3847 7.9655 26.2298C6.48075 25.0749 5.2643 23.6116 4.40014 21.9408C3.53597 20.27 3.04468 18.4316 2.96018 16.5525C2.87567 14.6734 3.19997 12.7983 3.91067 11.0567C4.62138 9.31508 5.70156 7.74846 7.07666 6.46496C8.45176 5.18147 10.089 4.21167 11.8754 3.62253C13.6618 3.03339 15.5547 2.83892 17.4236 3.05257C19.2925 3.26622 21.0927 3.88289 22.7 4.86L21.85 6.23Z" fill="#3a0ca3"/>
</svg>
