<svg width="80" height="80" viewBox="0 0 66 66" fill="none" xmlns="http://www.w3.org/2000/svg">
<g clip-path="url(#clip0_41_2)">
<mask id="mask0_41_2" style="mask-type:luminance" maskUnits="userSpaceOnUse" x="0" y="0" width="66" height="66">
<path d="M0 0H66V66H0V0Z" fill="white"/>
<path fill-rule="evenodd" clip-rule="evenodd" d="M28.4968 25.9735C28.7529 25.7599 29.0486 25.5988 29.367 25.4995C29.6854 25.4002 30.0203 25.3646 30.3525 25.3948C30.6846 25.425 31.0076 25.5203 31.3029 25.6754C31.5982 25.8304 31.86 26.0422 32.0735 26.2985L37.3611 32.6446C37.584 32.8994 37.7536 33.1961 37.8601 33.5174C37.9666 33.8387 38.0078 34.1781 37.9812 34.5155C37.9546 34.8529 37.8608 35.1816 37.7052 35.4823C37.5497 35.7829 37.3357 36.0494 37.0756 36.2661C36.8156 36.4828 36.5149 36.6453 36.1911 36.7441C35.8673 36.8428 35.5271 36.8758 35.1904 36.8411C34.8537 36.8064 34.5273 36.7048 34.2305 36.5421C33.9337 36.3794 33.6724 36.159 33.462 35.8938L28.1719 29.5477C27.7412 29.0306 27.5335 28.3636 27.5944 27.6934C27.6553 27.0231 27.9799 26.4045 28.4968 25.9735Z" fill="black"/>
<path fill-rule="evenodd" clip-rule="evenodd" d="M28.4968 42.5649C27.9799 42.134 27.6553 41.5154 27.5944 40.8451C27.5335 40.1749 27.7412 39.5079 28.1719 38.9908L33.462 32.6446C33.6724 32.3795 33.9337 32.1591 34.2305 31.9964C34.5273 31.8337 34.8537 31.732 35.1904 31.6974C35.5271 31.6627 35.8673 31.6957 36.1911 31.7944C36.5149 31.8932 36.8156 32.0557 37.0756 32.2724C37.3357 32.489 37.5497 32.7556 37.7052 33.0562C37.8608 33.3568 37.9546 33.6855 37.9812 34.023C38.0078 34.3604 37.9666 34.6998 37.8601 35.0211C37.7536 35.3424 37.584 35.6391 37.3611 35.8939L32.0735 42.24C31.86 42.4963 31.5982 42.7081 31.3029 42.8631C31.0076 43.0182 30.6846 43.1135 30.3525 43.1437C30.0203 43.1739 29.6854 43.1383 29.367 43.039C29.0486 42.9397 28.7529 42.7786 28.4968 42.5649Z" fill="black"/>
<path fill-rule="evenodd" clip-rule="evenodd" d="M34.7769 34.2692C34.7769 34.9425 34.5095 35.5881 34.0334 36.0642C33.5574 36.5403 32.9117 36.8077 32.2385 36.8077H15.7385C15.0652 36.8077 14.4196 36.5403 13.9435 36.0642C13.4675 35.5881 13.2 34.9425 13.2 34.2692C13.2 33.596 13.4675 32.9503 13.9435 32.4743C14.4196 31.9982 15.0652 31.7308 15.7385 31.7308H32.2385C32.9117 31.7308 33.5574 31.9982 34.0334 32.4743C34.5095 32.9503 34.7769 33.596 34.7769 34.2692ZM48.8654 52.0385C48.8654 52.7117 48.598 53.3574 48.1219 53.8334C47.6458 54.3095 47.0002 54.5769 46.3269 54.5769H23.4808C22.8075 54.5769 22.1619 54.3095 21.6858 53.8334C21.2098 53.3574 20.9423 52.7117 20.9423 52.0385C20.9423 51.3652 21.2098 50.7196 21.6858 50.2435C22.1619 49.7675 22.8075 49.5 23.4808 49.5H46.3269C47.0002 49.5 47.6458 49.7675 48.1219 50.2435C48.598 50.7196 48.8654 51.3652 48.8654 52.0385ZM48.8654 16.5C48.8654 17.1733 48.598 17.8189 48.1219 18.295C47.6458 18.771 47.0002 19.0385 46.3269 19.0385H23.4808C22.8075 19.0385 22.1619 18.771 21.6858 18.295C21.2098 17.8189 20.9423 17.1733 20.9423 16.5C20.9423 15.8268 21.2098 15.1811 21.6858 14.705C22.1619 14.229 22.8075 13.9615 23.4808 13.9615H46.3269C47.0002 13.9615 47.6458 14.229 48.1219 14.705C48.598 15.1811 48.8654 15.8268 48.8654 16.5Z" fill="black"/>
<path fill-rule="evenodd" clip-rule="evenodd" d="M23.4808 54.5769C22.8075 54.5769 22.1619 54.3095 21.6858 53.8334C21.2098 53.3574 20.9423 52.7117 20.9423 52.0385V41.8846C20.9423 41.2114 21.2098 40.5657 21.6858 40.0897C22.1619 39.6136 22.8075 39.3462 23.4808 39.3462C24.154 39.3462 24.7997 39.6136 25.2757 40.0897C25.7518 40.5657 26.0192 41.2114 26.0192 41.8846V52.0385C26.0192 52.7117 25.7518 53.3574 25.2757 53.8334C24.7997 54.3095 24.154 54.5769 23.4808 54.5769ZM23.4808 29.1923C22.8075 29.1923 22.1619 28.9249 21.6858 28.4488C21.2098 27.9728 20.9423 27.3271 20.9423 26.6539V16.5C20.9423 15.8268 21.2098 15.1811 21.6858 14.705C22.1619 14.229 22.8075 13.9615 23.4808 13.9615C24.154 13.9615 24.7997 14.229 25.2757 14.705C25.7518 15.1811 26.0192 15.8268 26.0192 16.5V26.6539C26.0192 27.3271 25.7518 27.9728 25.2757 28.4488C24.7997 28.9249 24.154 29.1923 23.4808 29.1923ZM47.2154 54.5769C46.5422 54.5769 45.8965 54.3095 45.4204 53.8334C44.9444 53.3574 44.6769 52.7117 44.6769 52.0385V16.5C44.6769 15.8268 44.9444 15.1811 45.4204 14.705C45.8965 14.229 46.5422 13.9615 47.2154 13.9615C47.8886 13.9615 48.5343 14.229 49.0104 14.705C49.4864 15.1811 49.7539 15.8268 49.7539 16.5V52.0385C49.7539 52.7117 49.4864 53.3574 49.0104 53.8334C48.5343 54.3095 47.8886 54.5769 47.2154 54.5769Z" fill="black"/>
</mask>
<g mask="url(#mask0_41_2)">
<path d="M33 66C51.2254 66 66 51.2254 66 33C66 14.7746 51.2254 0 33 0C14.7746 0 0 14.7746 0 33C0 51.2254 14.7746 66 33 66Z" fill="#3A0CA3"/>
</g>
</g>
<defs>
<clipPath id="clip0_41_2">
<rect width="66" height="66" fill="white"/>
</clipPath>
</defs>
</svg>
