<svg width="28" height="8" viewBox="0 0 37 37" fill="none" xmlns="http://www.w3.org/2000/svg">
<path d="M31.7969 4.04688H5.20312C4.56357 4.04688 4.04688 4.56357 4.04688 5.20312V31.7969C4.04688 32.4364 4.56357 32.9531 5.20312 32.9531H31.7969C32.4364 32.9531 32.9531 32.4364 32.9531 31.7969V5.20312C32.9531 4.56357 32.4364 4.04688 31.7969 4.04688ZM28.4582 12.4839H26.1493C24.3391 12.4839 23.9886 13.3438 23.9886 14.6085V17.3943H28.3101L27.7464 21.7556H23.9886V32.9531H19.4828V21.7592H15.7142V17.3943H19.4828V14.1785C19.4828 10.446 21.7628 8.41172 25.0942 8.41172C26.6913 8.41172 28.0607 8.53096 28.4618 8.58516V12.4839H28.4582Z" fill="#FFE45E"/>
</svg>
