<svg width="40" height="60" viewBox="0 0 57 68" fill="none" xmlns="http://www.w3.org/2000/svg">
<path fill-rule="evenodd" clip-rule="evenodd" d="M14.6789 14.0708L22.4465 5.31143C22.8635 4.84128 23.4547 4.54394 24.0899 4.48477C24.7251 4.42561 25.3524 4.60947 25.8339 4.99593L27.8539 6.61754C27.8832 6.64114 27.9122 6.666 27.94 6.69116L14.6789 14.0708ZM13.4102 22.181L12.161 20.0673C11.8514 19.5431 11.7756 18.9173 11.9503 18.3277C12.125 17.7381 12.5359 17.233 13.0926 16.9235L35.1277 4.66257C35.6843 4.35286 36.3411 4.26404 36.9537 4.41565C37.5663 4.56725 38.0845 4.94687 38.3944 5.47099L39.6934 7.66964C39.8769 7.98002 39.9593 8.33752 39.9303 8.69756C39.9014 9.05761 39.7624 9.40427 39.5307 9.69435C39.1664 10.1497 38.9484 10.6944 38.9042 11.2599C38.8599 11.8255 38.9914 12.3866 39.2821 12.8726C39.5728 13.3587 40.0097 13.748 40.5378 13.9915C41.0659 14.235 41.6616 14.3219 42.25 14.2412C42.6135 14.1914 42.9814 14.2456 43.3072 14.3969C43.6331 14.5481 43.902 14.7897 44.08 15.0908L45.4028 17.3299C45.7127 17.8541 45.7887 18.4797 45.6142 19.0694C45.4398 19.659 45.0291 20.1643 44.4726 20.474L22.4363 32.7352C21.8798 33.0447 21.2231 33.1334 20.6106 32.9818C19.9982 32.8302 19.48 32.4506 19.1702 31.9266L17.9255 29.8201C17.7294 29.4886 17.6392 29.1076 17.6656 28.7229C17.692 28.3381 17.834 27.966 18.0744 27.6512C18.4202 27.199 18.6244 26.6642 18.6624 26.1112C18.7003 25.5583 18.5705 25.0107 18.2884 24.5345C18.0063 24.0583 17.5841 23.6738 17.0725 23.4273C16.561 23.1807 15.9819 23.0827 15.4051 23.1449C15.006 23.1877 14.6054 23.1196 14.2516 22.9487C13.8978 22.7778 13.6059 22.5116 13.4111 22.1819M33.0936 13.0168C33.3035 12.9034 33.4888 12.7518 33.6388 12.5709C33.7888 12.39 33.9005 12.1833 33.9673 11.9629C34.0341 11.7424 34.0548 11.5126 34.0282 11.2868C34.0015 11.061 33.928 10.8436 33.812 10.6473C33.696 10.451 33.5397 10.2797 33.3523 10.1434C33.1649 10.007 32.95 9.90829 32.7201 9.85295C32.4903 9.79761 32.2501 9.78676 32.0134 9.82101C31.7767 9.85527 31.5483 9.93395 31.3414 10.0525C30.9306 10.2879 30.6292 10.6661 30.5024 11.1053C30.3757 11.5445 30.4338 12.0093 30.6642 12.399C30.8945 12.7888 31.2787 13.0722 31.7334 13.1878C32.188 13.3034 32.6767 13.242 33.0936 13.0168ZM35.4296 16.97C35.6363 16.855 35.8183 16.7028 35.9653 16.5221C36.1123 16.3413 36.2213 16.1356 36.2861 15.9166C36.351 15.6977 36.3704 15.4697 36.3432 15.2459C36.3161 15.022 36.2429 14.8066 36.1279 14.6119C36.0129 14.4172 35.8582 14.2471 35.6729 14.1112C35.4875 13.9754 35.275 13.8764 35.0475 13.8201C34.82 13.7637 34.5819 13.751 34.3469 13.7828C34.1119 13.8145 33.8846 13.89 33.6779 14.005C33.2604 14.2373 32.9523 14.6163 32.8214 15.0585C32.6905 15.5008 32.7475 15.9701 32.9799 16.3633C33.2123 16.7564 33.601 17.0412 34.0605 17.155C34.52 17.2687 35.0121 17.2023 35.4296 16.97ZM37.7666 20.9223C37.9773 20.8093 38.1634 20.658 38.3141 20.477C38.4648 20.2961 38.5771 20.0892 38.6444 19.8685C38.7118 19.6477 38.7328 19.4175 38.7063 19.1912C38.6798 18.9649 38.6064 18.7471 38.4901 18.5504C38.3739 18.3538 38.2173 18.1822 38.0295 18.0457C37.8416 17.9091 37.6262 17.8104 37.3958 17.7553C37.1655 17.7001 36.9248 17.6897 36.6877 17.7244C36.4506 17.7592 36.222 17.8386 36.015 17.9579C35.6057 18.1939 35.3057 18.5719 35.1798 19.0104C35.0539 19.4489 35.1121 19.9126 35.342 20.3017C35.5719 20.6907 35.9549 20.9738 36.4085 21.0899C36.8621 21.2061 37.3499 21.1459 37.7666 20.9223Z" fill="#4ECB71"/>
<path d="M7.7045 23.6944C7.92785 23.4374 8.20367 23.2313 8.5134 23.09C8.82312 22.9487 9.15955 22.8753 9.5 22.875L42.3201 22.875L42.7832 20.1105C42.8754 19.5559 43.1614 19.0521 43.5902 18.6885C44.019 18.3249 44.5628 18.1253 45.125 18.125L50.4688 18.125C51.0986 18.125 51.7027 18.3752 52.1481 18.8206C52.5935 19.266 52.8438 19.8701 52.8438 20.5C52.8438 21.1299 52.5935 21.734 52.1481 22.1794C51.7027 22.6248 51.0986 22.875 50.4688 22.875H47.1366L42.7191 49.3895L42.6122 49.684L42.484 50.0426L42.199 50.4678L41.9734 50.7338L41.515 51.0425L41.249 51.1969C40.9728 51.3123 40.6767 51.3728 40.3774 51.375L14.25 51.375C13.6201 51.375 13.016 51.1248 12.5706 50.6794C12.1252 50.234 11.875 49.6299 11.875 49C11.875 48.3701 12.1252 47.766 12.5706 47.3206C13.016 46.8752 13.6201 46.625 14.25 46.625L38.3634 46.625L38.7576 44.25L11.875 44.25C11.3035 44.2501 10.7511 44.0441 10.3192 43.6698C9.88734 43.2955 9.6049 42.778 9.52375 42.2123L7.14875 25.5873C7.10065 25.2504 7.12537 24.9071 7.22124 24.5805C7.31712 24.254 7.4819 23.9518 7.7045 23.6944ZM12.2384 27.625L12.9152 32.375H21.375V27.625H12.2384ZM23.75 27.625V32.375H30.875V27.625H23.75ZM23.75 34.75V39.5L30.875 39.5V34.75L23.75 34.75ZM33.25 27.625V32.375L40.375 32.375L40.7265 32.4463L41.5293 27.625L33.25 27.625ZM40.3418 34.75H33.25V39.5H39.5509L40.3418 34.75ZM21.375 39.5V34.75L13.2573 34.75L13.9341 39.5L21.375 39.5Z" fill="#4ECB71"/>
<path d="M36.8125 60.875C34.845 60.875 33.25 59.28 33.25 57.3125C33.25 55.345 34.845 53.75 36.8125 53.75C38.78 53.75 40.375 55.345 40.375 57.3125C40.375 59.28 38.78 60.875 36.8125 60.875Z" fill="#4ECB71"/>
<path d="M15.4375 60.875C13.47 60.875 11.875 59.28 11.875 57.3125C11.875 55.345 13.47 53.75 15.4375 53.75C17.405 53.75 19 55.345 19 57.3125C19 59.28 17.405 60.875 15.4375 60.875Z" fill="#4ECB71"/>
</svg>
