<svg width="50" height="30" viewBox="0 0 25 24" fill="none" xmlns="http://www.w3.org/2000/svg">
<path d="M12.5 8.75C11.638 8.75 10.8114 9.09241 10.2019 9.7019C9.59241 10.3114 9.25 11.138 9.25 12C9.25 12.862 9.59241 13.6886 10.2019 14.2981C10.8114 14.9076 11.638 15.25 12.5 15.25C13.362 15.25 14.1886 14.9076 14.7981 14.2981C15.4076 13.6886 15.75 12.862 15.75 12C15.75 11.138 15.4076 10.3114 14.7981 9.7019C14.1886 9.09241 13.362 8.75 12.5 8.75Z" fill="#FFE45E"/>
<path fill-rule="evenodd" clip-rule="evenodd" d="M7.26994 3.082C10.746 2.6967 14.2539 2.6967 17.7299 3.082C19.6289 3.294 21.1599 4.789 21.3829 6.695C21.7952 10.2197 21.7952 13.7803 21.3829 17.305C21.1599 19.211 19.6289 20.706 17.7309 20.919C14.2546 21.3044 10.7463 21.3044 7.26994 20.919C5.37094 20.706 3.83994 19.211 3.61694 17.306C3.20467 13.781 3.20467 10.22 3.61694 6.695C3.83994 4.789 5.37094 3.294 7.26994 3.082ZM17.4999 6C17.2347 6 16.9804 6.10536 16.7928 6.2929C16.6053 6.48043 16.4999 6.73479 16.4999 7C16.4999 7.26522 16.6053 7.51957 16.7928 7.70711C16.9804 7.89465 17.2347 8 17.4999 8C17.7652 8 18.0195 7.89465 18.2071 7.70711C18.3946 7.51957 18.4999 7.26522 18.4999 7C18.4999 6.73479 18.3946 6.48043 18.2071 6.2929C18.0195 6.10536 17.7652 6 17.4999 6ZM7.74994 12C7.74994 10.7402 8.25039 9.53205 9.14119 8.64125C10.032 7.75045 11.2402 7.25 12.4999 7.25C13.7597 7.25 14.9679 7.75045 15.8587 8.64125C16.7495 9.53205 17.2499 10.7402 17.2499 12C17.2499 13.2598 16.7495 14.468 15.8587 15.3588C14.9679 16.2496 13.7597 16.75 12.4999 16.75C11.2402 16.75 10.032 16.2496 9.14119 15.3588C8.25039 14.468 7.74994 13.2598 7.74994 12Z" fill="#FFE45E"/>
</svg>
