<svg width="35" height="35" viewBox="0 0 39 39" fill="none" xmlns="http://www.w3.org/2000/svg">
<path d="M19.5 33.4035C19.2454 33.4035 18.9908 33.3618 18.7362 33.2784C18.4827 33.195 18.2487 33.0595 18.0342 32.8721C16.8783 31.8105 15.7067 30.6269 14.5194 29.3215C13.331 28.0172 12.252 26.6668 11.2824 25.2704C10.3128 23.8729 9.51816 22.4467 8.89849 20.9918C8.27883 19.5368 7.96899 18.1166 7.96899 16.731C7.96899 13.2936 9.08808 10.4585 11.3262 8.22575C13.5655 5.99192 16.2901 4.875 19.5 4.875C22.7099 4.875 25.4345 5.99192 27.6737 8.22575C29.9119 10.4585 31.031 13.2936 31.031 16.731C31.031 18.1166 30.7212 19.532 30.1015 20.9771C29.4818 22.4212 28.6921 23.8469 27.7322 25.2541C26.7735 26.6625 25.7005 28.0134 24.5131 29.3069C23.3247 30.6004 22.1525 31.7785 20.9966 32.8412C20.7897 33.0287 20.5546 33.1695 20.2914 33.2637C20.027 33.3569 19.7632 33.4035 19.5 33.4035ZM19.5049 19.0629C20.2285 19.0629 20.846 18.805 21.3574 18.2894C21.8687 17.7748 22.1244 17.1557 22.1244 16.432C22.1244 15.7083 21.8671 15.0908 21.3525 14.5795C20.8368 14.0682 20.2177 13.8125 19.4951 13.8125C18.7725 13.8125 18.155 14.0703 17.6426 14.586C17.1313 15.1006 16.8756 15.7197 16.8756 16.4434C16.8756 17.167 17.1329 17.7845 17.6475 18.2959C18.1632 18.8072 18.7823 19.0629 19.5049 19.0629Z" fill="#3A0CA3"/>
</svg>
