<svg width="30" height="30" viewBox="0 0 21 20" fill="none" xmlns="http://www.w3.org/2000/svg">
<g clip-path="url(#clip0_410_674)">
<path d="M10.86 20C8.20782 20 5.66428 18.9464 3.78892 17.0711C1.91355 15.1957 0.859985 12.6522 0.859985 10C0.859985 7.34784 1.91355 4.8043 3.78892 2.92893C5.66428 1.05357 8.20782 0 10.86 0C13.5122 0 16.0557 1.05357 17.9311 2.92893C19.8064 4.8043 20.86 7.34784 20.86 10C20.86 12.6522 19.8064 15.1957 17.9311 17.0711C16.0557 18.9464 13.5122 20 10.86 20ZM15.86 9H5.85999V11H15.86V9Z" fill="#3a0ca3"/>
</g>
<defs>
<clipPath id="clip0_410_674">
<rect width="20" height="20" fill="white" transform="translate(0.859985)"/>
</clipPath>
</defs>
</svg>
