<svg width="45" height="40" viewBox="0 0 45 45" fill="none" xmlns="http://www.w3.org/2000/svg">
<g clip-path="url(#clip0_387_685)">
<path d="M44.7675 15.1392C44.7544 15.1261 44.7391 15.1167 44.7252 15.1045L39.2212 9.59741C38.6916 9.95063 38.0559 10.1095 37.4224 10.0469C36.7889 9.98425 36.1966 9.7041 35.7463 9.25406C35.2961 8.8036 35.0159 8.211 34.9535 7.57718C34.891 6.94335 35.0502 6.30748 35.4039 5.77781L29.8612 0.232464C29.7123 0.08391 29.5105 0.000488281 29.3001 0.000488281C29.0897 0.000488281 28.8879 0.08391 28.7389 0.232464L0.234128 28.7382L0.232778 28.7395C0.159059 28.8132 0.100579 28.9007 0.0606795 28.997C0.0207804 29.0932 0.000244141 29.1964 0.000244141 29.3007C0.000244141 29.4049 0.0207804 29.5081 0.0606795 29.6044C0.100579 29.7007 0.159059 29.7881 0.232778 29.8618L0.233228 29.8623L5.77948 35.4031C6.309 35.0506 6.94422 34.8923 7.57725 34.955C8.21027 35.0177 8.80206 35.2977 9.25208 35.7473C9.7021 36.1969 9.98261 36.7884 10.0459 37.4214C10.1093 38.0543 9.95154 38.6897 9.59953 39.2196L15.0742 44.6889C15.0949 44.7159 15.1143 44.7438 15.139 44.7681C15.2127 44.8418 15.3001 44.9002 15.3964 44.9401C15.4926 44.98 15.5958 45.0006 15.7 45.0006C15.8041 45.0006 15.9073 44.98 16.0036 44.9401C16.0998 44.9002 16.1872 44.8418 16.2609 44.7681L16.2613 44.7685L44.7675 16.2615C44.8412 16.1878 44.8997 16.1003 44.9396 16.004C44.9795 15.9077 45 15.8045 45 15.7003C45 15.5961 44.9795 15.4929 44.9396 15.3966C44.8997 15.3003 44.8412 15.2128 44.7675 15.1392ZM38.4832 16.261L16.2613 38.4834C16.1877 38.5571 16.1002 38.6155 16.004 38.6554C15.9078 38.6953 15.8046 38.7159 15.7004 38.7159C15.5962 38.7159 15.493 38.6953 15.3968 38.6554C15.3006 38.6155 15.2131 38.5571 15.1395 38.4834L6.51793 29.8614C6.44422 29.7877 6.38575 29.7003 6.34586 29.604C6.30597 29.5078 6.28543 29.4046 6.28543 29.3004C6.28543 29.1963 6.30597 29.0931 6.34586 28.9968C6.38575 28.9006 6.44422 28.8131 6.51793 28.7395L28.7394 6.51761C28.8882 6.36898 29.09 6.28549 29.3003 6.28549C29.5106 6.28549 29.7124 6.36898 29.8612 6.51761L38.4832 15.1401C38.5569 15.2136 38.6154 15.301 38.6552 15.3972C38.6951 15.4933 38.7156 15.5964 38.7156 15.7005C38.7156 15.8047 38.6951 15.9077 38.6552 16.0039C38.6154 16.1001 38.5569 16.1875 38.4832 16.261Z" fill="#FFE45E"/>
<path d="M27.8654 23.1844L24.7959 21.7179L25.1694 18.5076C25.1747 18.4601 25.1651 18.4122 25.142 18.3704C25.119 18.3286 25.0835 18.295 25.0405 18.2742C24.9975 18.2534 24.9491 18.2465 24.902 18.2544C24.8549 18.2622 24.8114 18.2845 24.7775 18.3181L22.4838 20.6122L19.49 19.1821C19.4471 19.1617 19.3989 19.155 19.352 19.1631C19.3052 19.1711 19.262 19.1934 19.2283 19.227C19.1946 19.2606 19.1722 19.3037 19.164 19.3505C19.1558 19.3974 19.1623 19.4456 19.1826 19.4886L20.6132 22.4833L18.3191 24.7765C18.2853 24.8105 18.2629 24.8541 18.2549 24.9013C18.247 24.9485 18.2538 24.997 18.2745 25.0402C18.2955 25.0831 18.3293 25.1184 18.3712 25.1413C18.4131 25.1642 18.4611 25.1735 18.5085 25.168L21.7179 24.795L23.1849 27.8649C23.2058 27.9073 23.2391 27.9423 23.2804 27.9652C23.3217 27.9881 23.3691 27.9978 23.4161 27.993C23.4631 27.9882 23.5075 27.9691 23.5433 27.9383C23.5791 27.9075 23.6047 27.8665 23.6165 27.8208L24.458 24.4566L27.8231 23.6146C27.869 23.6027 27.9101 23.5771 27.9412 23.5413C27.9722 23.5054 27.9916 23.461 27.9968 23.4139C28.001 23.3668 27.9906 23.3196 27.9671 23.2785C27.9436 23.2375 27.9081 23.2047 27.8654 23.1844Z" fill="#FFE45E"/>
</g>
<defs>
<clipPath id="clip0_387_685">
<rect width="45" height="45" fill="white"/>
</clipPath>
</defs>
</svg>
