<svg width="37" height="37" viewBox="0 0 37 37" fill="none" xmlns="http://www.w3.org/2000/svg">
<path d="M18.5 3.08334C27.01 3.08334 33.9167 9.99001 33.9167 18.5C33.9167 27.01 27.01 33.9167 18.5 33.9167C9.99 33.9167 3.08333 27.01 3.08333 18.5C3.08333 9.99001 9.99 3.08334 18.5 3.08334ZM9.28546 23.7663C11.5486 27.1426 14.9465 29.2917 18.7467 29.2917C22.5453 29.2917 25.9447 27.1441 28.2063 23.7663C25.6406 21.3684 22.2585 20.0368 18.7467 20.0417C15.2343 20.0364 11.8516 21.3681 9.28546 23.7663ZM18.5 16.9583C19.7266 16.9583 20.903 16.4711 21.7704 15.6037C22.6377 14.7364 23.125 13.56 23.125 12.3333C23.125 11.1067 22.6377 9.93033 21.7704 9.06298C20.903 8.19562 19.7266 7.70834 18.5 7.70834C17.2734 7.70834 16.097 8.19562 15.2296 9.06298C14.3623 9.93033 13.875 11.1067 13.875 12.3333C13.875 13.56 14.3623 14.7364 15.2296 15.6037C16.097 16.4711 17.2734 16.9583 18.5 16.9583Z" fill="#FFE45E"/>
</svg>
