<svg width="25" height="10" viewBox="0 0 300 300" fill="none" xmlns="http://www.w3.org/2000/svg">
<path fill-rule="evenodd" clip-rule="evenodd" d="M304.594 75.1338C304.594 54.2975 287.702 37.4062 266.866 37.4062H75.1338C54.2975 37.4062 37.4062 54.2975 37.4062 75.1338V266.866C37.4062 287.703 54.2975 304.594 75.1338 304.594H266.866C287.702 304.594 304.594 287.703 304.594 266.866V75.1338ZM258.757 153.939C241.519 154.131 225.456 148.92 211.352 139.268V207.025C211.352 237.139 190.739 263.007 161.59 269.763C121.823 278.836 88.1589 250.073 83.9129 215.712C79.4729 181.351 101.388 151.236 134.976 144.48C141.54 143.129 151.411 143.129 156.504 144.287V180.578C154.937 180.193 153.47 179.807 151.926 179.614C138.799 177.297 126.085 183.86 120.873 195.829C115.661 207.798 119.15 221.696 129.767 229.805C138.646 236.754 148.498 237.718 158.536 233.085C168.575 228.646 173.969 220.539 175.127 209.535C175.32 207.992 175.309 206.254 175.309 204.516V74.2133C175.309 70.5458 175.338 70.7058 179.006 70.7058H207.769C209.893 70.7058 210.665 71.0114 210.858 73.5223C212.401 95.915 229.403 114.985 251.216 117.881C253.533 118.267 256.015 118.42 258.757 118.613V153.939Z" fill="#FFE45E"/>
</svg>
