<svg width="22" height="25" viewBox="0 0 22 25" fill="none" xmlns="http://www.w3.org/2000/svg">
<g clip-path="url(#clip0_18_2)">
<path d="M16.313 4.49863V2.64263C16.313 1.45863 15.353 0.498627 14.169 0.498627H7.831C7.54579 0.498691 7.26347 0.555712 7.0006 0.666344C6.73772 0.776976 6.49959 0.938992 6.30017 1.14289C6.10074 1.34678 5.94405 1.58845 5.83927 1.85371C5.73449 2.11897 5.68374 2.40249 5.69 2.68763V2.68563V4.49863H0V6.49863H0.575C0.771 6.52163 0.947 6.59763 1.09 6.71263L1.088 6.71063C1.207 6.86763 1.291 7.05663 1.327 7.26263L1.328 7.27063L2.515 22.3766C2.609 24.2166 2.609 24.4946 4.765 24.4946H17.227C19.387 24.4946 19.387 24.2196 19.477 22.3816L20.664 7.28163C20.7 7.06463 20.784 6.87263 20.906 6.70963L20.904 6.71263C21.05 6.59555 21.2261 6.52206 21.412 6.50063H21.992V4.50063H16.305L16.313 4.49863ZM7 2.68563C7 2.08563 7.487 1.74763 8.106 1.74763H13.84C14.458 1.74763 15.002 2.09163 15.002 2.68563V4.49863H7.002L7 2.68563ZM6.469 20.4986L5.829 8.49863H7.098L7.754 20.4986H6.469ZM11.694 20.4986H10.32V8.49863H11.695L11.694 20.4986ZM15.544 20.4986H14.269L14.925 8.49863H16.194L15.544 20.4986Z" fill="#FF0000"/>
</g>
<defs>
<clipPath id="clip0_18_2">
<rect width="22" height="24" fill="white" transform="translate(0 0.498627)"/>
</clipPath>
</defs>
</svg>
