<svg xmlns="http://www.w3.org/2000/svg" xmlns:xlink="http://www.w3.org/1999/xlink" width="500" zoomAndPan="magnify" viewBox="0 0 375 374.999991" height="500" preserveAspectRatio="xMidYMid meet" version="1.0"><defs><g/><clipPath id="3f31285031"><path d="M 63 150 L 138 150 L 138 228.226562 L 63 228.226562 Z M 63 150 " clip-rule="nonzero"/></clipPath><clipPath id="d4e8b99ec9"><path d="M 91 146.476562 L 105 146.476562 L 105 160 L 91 160 Z M 91 146.476562 " clip-rule="nonzero"/></clipPath><clipPath id="0da52f4257"><path d="M 45.800781 182 L 60 182 L 60 197 L 45.800781 197 Z M 45.800781 182 " clip-rule="nonzero"/></clipPath></defs><g clip-path="url(#3f31285031)"><path fill="#00a8f1" d="M 87.214844 173.863281 C 88.070312 173.027344 89.460938 173.027344 90.296875 173.882812 M 63.953125 189.59375 C 63.953125 188.390625 64.949219 187.390625 66.152344 187.390625 C 67.359375 187.390625 68.355469 188.390625 68.355469 189.59375 C 68.355469 199.140625 72.222656 207.757812 78.480469 214.015625 C 84.734375 220.269531 93.355469 224.140625 102.898438 224.140625 C 109.363281 224.140625 115.410156 222.355469 120.578125 219.273438 C 125.1875 216.515625 129.082031 212.738281 131.976562 208.222656 L 119.699219 204.121094 C 117.796875 206.320312 115.457031 208.128906 112.839844 209.449219 C 109.828125 210.957031 106.46875 211.8125 102.898438 211.8125 C 101.695312 211.8125 100.699219 210.816406 100.699219 209.613281 C 100.699219 208.40625 101.695312 207.410156 102.898438 207.410156 C 105.773438 207.410156 108.484375 206.738281 110.894531 205.535156 C 113.371094 204.28125 115.527344 202.476562 117.195312 200.25 C 117.75 199.511719 118.722656 199.1875 119.652344 199.488281 L 135.871094 204.886719 C 136.03125 204.933594 136.171875 204.976562 136.308594 205.070312 C 137.375 205.648438 137.769531 206.96875 137.214844 208.035156 C 133.878906 214.222656 128.894531 219.4375 122.847656 223.027344 C 117.011719 226.503906 110.199219 228.519531 102.921875 228.519531 C 92.171875 228.519531 82.441406 224.164062 75.398438 217.117188 C 68.308594 210.074219 63.953125 200.34375 63.953125 189.59375 Z M 137.191406 171.128906 C 137.769531 172.191406 137.375 173.539062 136.285156 174.09375 C 136.148438 174.164062 135.984375 174.230469 135.847656 174.277344 L 119.789062 179.652344 C 118.886719 180.023438 117.796875 179.769531 117.171875 178.9375 C 115.503906 176.710938 113.347656 174.882812 110.871094 173.652344 C 108.484375 172.449219 105.773438 171.777344 102.875 171.777344 C 97.941406 171.777344 93.492188 173.769531 90.273438 176.988281 C 87.050781 180.210938 85.058594 184.660156 85.058594 189.59375 C 85.058594 190.796875 84.0625 191.792969 82.859375 191.792969 C 81.652344 191.792969 80.65625 190.796875 80.65625 189.59375 C 80.65625 183.476562 83.136719 177.917969 87.167969 173.882812 L 87.191406 173.863281 C 91.222656 169.851562 96.761719 167.375 102.875 167.375 C 106.445312 167.375 109.828125 168.230469 112.816406 169.738281 C 115.457031 171.058594 117.773438 172.886719 119.675781 175.066406 L 131.953125 170.964844 C 129.058594 166.46875 125.140625 162.671875 120.554688 159.914062 C 115.386719 156.832031 109.339844 155.046875 102.875 155.046875 C 101.671875 155.046875 100.675781 154.050781 100.675781 152.847656 C 100.675781 151.640625 101.671875 150.644531 102.875 150.644531 C 110.152344 150.644531 116.964844 152.660156 122.800781 156.136719 C 128.851562 159.75 133.832031 164.941406 137.191406 171.128906 Z M 137.191406 171.128906 " fill-opacity="1" fill-rule="nonzero"/></g><path fill="#00a8f1" d="M 86.984375 157.527344 C 88.1875 157.527344 89.183594 158.523438 89.183594 159.726562 C 89.183594 160.933594 88.1875 161.929688 86.984375 161.929688 L 72.292969 161.929688 C 71.089844 161.929688 70.09375 160.933594 70.09375 159.726562 C 70.09375 158.523438 71.089844 157.527344 72.292969 157.527344 Z M 86.984375 157.527344 " fill-opacity="1" fill-rule="nonzero"/><path fill="#00a8f1" d="M 90.945312 171.289062 C 92.148438 171.289062 93.144531 172.285156 93.144531 173.492188 C 93.144531 174.695312 92.148438 175.691406 90.945312 175.691406 L 71.828125 175.691406 C 70.625 175.691406 69.628906 174.695312 69.628906 173.492188 C 69.628906 172.285156 70.625 171.289062 71.828125 171.289062 Z M 90.945312 171.289062 " fill-opacity="1" fill-rule="nonzero"/><path fill="#00a8f1" d="M 82.859375 187.390625 C 84.0625 187.390625 85.058594 188.390625 85.058594 189.59375 C 85.058594 190.796875 84.0625 191.792969 82.859375 191.792969 L 57.09375 191.792969 C 55.890625 191.792969 54.894531 190.796875 54.894531 189.59375 C 54.894531 188.390625 55.890625 187.390625 57.09375 187.390625 Z M 82.859375 187.390625 " fill-opacity="1" fill-rule="nonzero"/><g clip-path="url(#d4e8b99ec9)"><path fill="#00a8f1" d="M 99.449219 151.574219 C 99.03125 151.15625 98.429688 150.902344 97.78125 150.902344 C 97.128906 150.902344 96.550781 151.15625 96.132812 151.59375 C 95.71875 152.011719 95.4375 152.613281 95.4375 153.242188 C 95.4375 153.890625 95.695312 154.46875 96.132812 154.886719 C 96.550781 155.304688 97.152344 155.558594 97.800781 155.558594 C 98.453125 155.558594 99.03125 155.304688 99.472656 154.886719 C 99.886719 154.46875 100.144531 153.867188 100.144531 153.21875 C 100.121094 152.59375 99.863281 151.988281 99.449219 151.574219 M 97.78125 146.476562 C 99.632812 146.476562 101.324219 147.238281 102.550781 148.445312 C 103.78125 149.671875 104.523438 151.339844 104.523438 153.195312 C 104.523438 155.046875 103.757812 156.738281 102.550781 157.945312 C 101.324219 159.171875 99.65625 159.914062 97.800781 159.914062 C 95.949219 159.914062 94.257812 159.148438 93.054688 157.945312 C 91.824219 156.714844 91.082031 155.046875 91.082031 153.171875 C 91.082031 151.316406 91.847656 149.625 93.054688 148.398438 C 94.234375 147.238281 95.925781 146.476562 97.78125 146.476562 Z M 97.78125 146.476562 " fill-opacity="1" fill-rule="nonzero"/></g><path fill="#00a8f1" d="M 100.003906 207.480469 C 99.585938 207.0625 98.984375 206.808594 98.335938 206.808594 C 97.6875 206.808594 97.109375 207.0625 96.691406 207.503906 C 96.273438 207.921875 95.996094 208.523438 95.996094 209.148438 C 95.996094 209.796875 96.25 210.375 96.691406 210.792969 C 97.109375 211.210938 97.710938 211.464844 98.359375 211.464844 C 99.007812 211.464844 99.585938 211.210938 100.027344 210.792969 C 100.445312 210.375 100.699219 209.773438 100.699219 209.125 C 100.675781 208.476562 100.421875 207.898438 100.003906 207.480469 M 98.335938 202.382812 C 100.1875 202.382812 101.878906 203.148438 103.109375 204.351562 C 104.335938 205.582031 105.078125 207.25 105.078125 209.101562 C 105.078125 210.957031 104.3125 212.648438 103.109375 213.851562 C 101.878906 215.078125 100.210938 215.820312 98.359375 215.820312 C 96.503906 215.820312 94.8125 215.058594 93.609375 213.851562 C 92.382812 212.625 91.640625 210.957031 91.640625 209.078125 C 91.640625 207.226562 92.402344 205.535156 93.609375 204.304688 C 94.789062 203.148438 96.480469 202.382812 98.335938 202.382812 Z M 98.335938 202.382812 " fill-opacity="1" fill-rule="nonzero"/><g clip-path="url(#0da52f4257)"><path fill="#00a8f1" d="M 54.222656 188.019531 C 53.804688 187.601562 53.203125 187.347656 52.550781 187.347656 C 51.902344 187.347656 51.324219 187.601562 50.90625 188.042969 C 50.492188 188.457031 50.210938 189.0625 50.210938 189.6875 C 50.210938 190.335938 50.46875 190.914062 50.90625 191.332031 C 51.324219 191.75 51.925781 192.003906 52.574219 192.003906 C 53.222656 192.003906 53.804688 191.75 54.242188 191.332031 C 54.660156 190.914062 54.914062 190.3125 54.914062 189.664062 C 54.914062 189.039062 54.636719 188.433594 54.222656 188.019531 M 52.574219 182.945312 C 54.429688 182.945312 56.121094 183.707031 57.347656 184.914062 C 58.578125 186.140625 59.316406 187.808594 59.316406 189.664062 C 59.316406 191.515625 58.554688 193.207031 57.347656 194.414062 C 56.121094 195.640625 54.453125 196.382812 52.597656 196.382812 C 50.746094 196.382812 49.054688 195.617188 47.847656 194.414062 C 46.621094 193.183594 45.878906 191.515625 45.878906 189.640625 C 45.878906 187.785156 46.644531 186.09375 47.847656 184.867188 C 49.007812 183.683594 50.699219 182.945312 52.574219 182.945312 Z M 52.574219 182.945312 " fill-opacity="1" fill-rule="nonzero"/></g><path fill="#00a8f1" d="M 68.816406 171.847656 C 68.402344 171.429688 67.796875 171.175781 67.148438 171.175781 C 66.5 171.175781 65.921875 171.429688 65.503906 171.867188 C 65.085938 172.285156 64.808594 172.886719 64.808594 173.515625 C 64.808594 174.164062 65.0625 174.742188 65.503906 175.160156 C 65.921875 175.574219 66.523438 175.832031 67.171875 175.832031 C 67.820312 175.832031 68.402344 175.574219 68.839844 175.160156 C 69.257812 174.742188 69.511719 174.140625 69.511719 173.492188 C 69.488281 172.84375 69.234375 172.261719 68.816406 171.847656 M 67.148438 166.75 C 69.003906 166.75 70.695312 167.511719 71.921875 168.71875 C 73.148438 169.945312 73.890625 171.613281 73.890625 173.46875 C 73.890625 175.320312 73.128906 177.011719 71.921875 178.21875 C 70.695312 179.445312 69.027344 180.1875 67.171875 180.1875 C 65.320312 180.1875 63.628906 179.421875 62.421875 178.21875 C 61.195312 176.988281 60.453125 175.320312 60.453125 173.445312 C 60.453125 171.589844 61.21875 169.898438 62.421875 168.671875 C 63.605469 167.511719 65.296875 166.75 67.148438 166.75 Z M 67.148438 166.75 " fill-opacity="1" fill-rule="nonzero"/><g fill="#1c4475" fill-opacity="1"><g transform="translate(157.683129, 206.028426)"><g><path d="M 6.304688 -8.386719 L 0.59375 -8.386719 L 0.59375 -6.71875 L 2.496094 -6.71875 L 2.496094 -1.664062 L 0.59375 -1.664062 L 0.59375 0 L 6.304688 0 L 6.304688 -1.664062 L 4.402344 -1.664062 L 4.402344 -6.71875 L 6.304688 -6.71875 Z M 6.304688 -8.386719 "/></g></g></g><g fill="#1c4475" fill-opacity="1"><g transform="translate(164.576562, 206.028426)"><g><path d="M 4.328125 -4.460938 C 5.246094 -4.460938 5.566406 -4.042969 5.566406 -2.949219 L 5.566406 0 L 7.46875 0 L 7.46875 -3.246094 C 7.46875 -5.101562 6.542969 -6.125 5.007812 -6.125 C 3.722656 -6.125 2.972656 -5.28125 2.734375 -4.210938 L 2.261719 -4.210938 L 2.617188 -5.28125 L 2.617188 -6.007812 L 0.714844 -6.007812 L 0.714844 0 L 2.617188 0 L 2.617188 -2.222656 C 2.617188 -3.914062 3.292969 -4.460938 4.328125 -4.460938 Z M 4.328125 -4.460938 "/></g></g></g><g fill="#1c4475" fill-opacity="1"><g transform="translate(172.634755, 206.028426)"><g><path d="M 5.472656 -7.078125 L 5.472656 -8.742188 L 4.449219 -8.742188 C 2.4375 -8.742188 1.5 -7.839844 1.5 -6.222656 L 1.5 -6.007812 L 0.355469 -6.007812 L 0.355469 -4.339844 L 1.5 -4.339844 L 1.5 -1.664062 L 0.355469 -1.664062 L 0.355469 0 L 5.136719 0 L 5.136719 -1.664062 L 3.402344 -1.664062 L 3.402344 -4.339844 L 5.136719 -4.339844 L 5.136719 -6.007812 L 3.402344 -6.007812 L 3.402344 -6.160156 C 3.402344 -6.828125 3.652344 -7.078125 4.210938 -7.078125 Z M 5.472656 -7.078125 "/></g></g></g><g fill="#1c4475" fill-opacity="1"><g transform="translate(178.220809, 206.028426)"><g><path d="M 0.476562 -3.007812 C 0.476562 -0.902344 1.972656 0.117188 3.867188 0.117188 C 5.746094 0.117188 7.242188 -0.902344 7.242188 -3.007812 C 7.242188 -5.101562 5.746094 -6.125 3.867188 -6.125 C 1.972656 -6.125 0.476562 -5.101562 0.476562 -3.007812 Z M 2.378906 -3.007812 C 2.378906 -4.007812 2.960938 -4.460938 3.867188 -4.460938 C 4.757812 -4.460938 5.339844 -4.007812 5.339844 -3.007812 C 5.339844 -2 4.757812 -1.546875 3.867188 -1.546875 C 2.960938 -1.546875 2.378906 -2 2.378906 -3.007812 Z M 2.378906 -3.007812 "/></g></g></g><g fill="#1c4475" fill-opacity="1"><g transform="translate(185.93433, 206.028426)"><g><path d="M 2.617188 0 L 2.617188 -4.414062 L 5.671875 -4.339844 L 5.671875 -6.007812 L 1.738281 -6.101562 C 1.082031 -6.113281 0.714844 -5.757812 0.714844 -5.101562 L 0.714844 0 Z M 2.617188 0 "/></g></g></g><g fill="#1c4475" fill-opacity="1"><g transform="translate(191.722436, 206.028426)"><g><path d="M 8.753906 -6.125 C 7.589844 -6.125 7.054688 -5.398438 6.816406 -4.328125 L 6.472656 -4.328125 C 6.292969 -5.375 5.816406 -6.125 4.6875 -6.125 C 3.519531 -6.125 2.972656 -5.398438 2.734375 -4.328125 L 2.261719 -4.328125 L 2.617188 -5.398438 L 2.617188 -6.007812 L 0.714844 -6.007812 L 0.714844 0 L 2.617188 0 L 2.617188 -2.105469 C 2.617188 -3.554688 2.855469 -4.460938 3.890625 -4.460938 C 4.589844 -4.460938 4.78125 -4.140625 4.78125 -2.996094 L 4.78125 0 L 6.683594 0 L 6.683594 -2.105469 C 6.683594 -3.554688 6.921875 -4.460938 7.957031 -4.460938 C 8.660156 -4.460938 8.851562 -4.140625 8.851562 -2.996094 L 8.851562 0 L 10.753906 0 L 10.753906 -3.128906 C 10.753906 -4.746094 10.289062 -6.125 8.753906 -6.125 Z M 8.753906 -6.125 "/></g></g></g><g fill="#1c4475" fill-opacity="1"><g transform="translate(203.060948, 206.028426)"><g><path d="M 0.476562 -1.640625 C 0.476562 -1.023438 0.796875 0.117188 2.664062 0.117188 C 4.339844 0.117188 4.925781 -0.726562 5.152344 -1.726562 L 5.625 -1.726562 L 5.328125 -1.011719 L 5.328125 -0.890625 C 5.328125 -0.320312 5.648438 0 6.222656 0 L 7.542969 0 L 7.542969 -1.664062 L 6.671875 -1.664062 L 6.671875 -3.355469 C 6.671875 -5.328125 5.222656 -6.125 3.570312 -6.125 C 1.890625 -6.125 0.59375 -5.234375 0.59375 -3.710938 L 2.378906 -3.710938 C 2.378906 -4.257812 2.808594 -4.578125 3.570312 -4.578125 C 4.390625 -4.578125 4.769531 -4.28125 4.769531 -3.792969 L 2.878906 -3.53125 C 1.09375 -3.28125 0.476562 -2.675781 0.476562 -1.640625 Z M 2.378906 -2 C 2.378906 -2.34375 2.664062 -2.425781 3.234375 -2.511719 L 4.769531 -2.722656 C 4.769531 -1.988281 4.078125 -1.546875 3.03125 -1.546875 C 2.710938 -1.546875 2.378906 -1.652344 2.378906 -2 Z M 2.378906 -2 "/></g></g></g><g fill="#1c4475" fill-opacity="1"><g transform="translate(210.715037, 206.028426)"><g><path d="M 3.449219 -4.339844 L 5.425781 -4.339844 L 5.425781 -6.007812 L 3.449219 -6.007812 L 3.449219 -7.730469 L 1.546875 -7.136719 L 1.546875 -6.007812 L 0.117188 -6.007812 L 0.117188 -4.339844 L 1.546875 -4.339844 L 1.546875 -0.890625 C 1.546875 -0.238281 1.902344 0.144531 2.558594 0.117188 L 5.660156 0 L 5.660156 -1.664062 L 3.449219 -1.546875 Z M 3.449219 -4.339844 "/></g></g></g><g fill="#1c4475" fill-opacity="1"><g transform="translate(216.728966, 206.028426)"><g><path d="M 2.9375 -6.601562 C 3.640625 -6.601562 4.078125 -6.933594 4.078125 -7.554688 C 4.078125 -8.160156 3.640625 -8.503906 2.9375 -8.503906 C 2.234375 -8.503906 1.820312 -8.160156 1.820312 -7.554688 C 1.820312 -6.933594 2.234375 -6.601562 2.9375 -6.601562 Z M 5.710938 0 L 5.710938 -1.664062 L 4.007812 -1.664062 L 4.007812 -5.125 C 4.007812 -5.792969 3.640625 -6.160156 2.972656 -6.125 L 0.714844 -6.007812 L 0.714844 -4.339844 L 2.175781 -4.414062 L 2.175781 -1.664062 L 0.476562 -1.664062 L 0.476562 0 Z M 5.710938 0 "/></g></g></g><g fill="#1c4475" fill-opacity="1"><g transform="translate(222.671584, 206.028426)"><g><path d="M 0.476562 -3.007812 C 0.476562 -0.902344 1.972656 0.117188 3.867188 0.117188 C 5.746094 0.117188 7.242188 -0.902344 7.242188 -3.007812 C 7.242188 -5.101562 5.746094 -6.125 3.867188 -6.125 C 1.972656 -6.125 0.476562 -5.101562 0.476562 -3.007812 Z M 2.378906 -3.007812 C 2.378906 -4.007812 2.960938 -4.460938 3.867188 -4.460938 C 4.757812 -4.460938 5.339844 -4.007812 5.339844 -3.007812 C 5.339844 -2 4.757812 -1.546875 3.867188 -1.546875 C 2.960938 -1.546875 2.378906 -2 2.378906 -3.007812 Z M 2.378906 -3.007812 "/></g></g></g><g fill="#1c4475" fill-opacity="1"><g transform="translate(230.385104, 206.028426)"><g><path d="M 4.328125 -4.460938 C 5.246094 -4.460938 5.566406 -4.042969 5.566406 -2.949219 L 5.566406 0 L 7.46875 0 L 7.46875 -3.246094 C 7.46875 -5.101562 6.542969 -6.125 5.007812 -6.125 C 3.722656 -6.125 2.972656 -5.28125 2.734375 -4.210938 L 2.261719 -4.210938 L 2.617188 -5.28125 L 2.617188 -6.007812 L 0.714844 -6.007812 L 0.714844 0 L 2.617188 0 L 2.617188 -2.222656 C 2.617188 -3.914062 3.292969 -4.460938 4.328125 -4.460938 Z M 4.328125 -4.460938 "/></g></g></g><g fill="#1c4475" fill-opacity="1"><g transform="translate(238.443297, 206.028426)"><g/></g></g><g fill="#1c4475" fill-opacity="1"><g transform="translate(241.771157, 206.028426)"><g><path d="M 0.355469 -8.386719 L 0.355469 -6.71875 L 3.105469 -6.71875 L 3.105469 0 L 5.007812 0 L 5.007812 -6.71875 L 7.742188 -6.71875 L 7.742188 -8.386719 Z M 0.355469 -8.386719 "/></g></g></g><g fill="#1c4475" fill-opacity="1"><g transform="translate(249.864998, 206.028426)"><g><path d="M 0.476562 -3.082031 C 0.476562 -1.378906 1.535156 0.117188 3.84375 0.117188 C 5.921875 0.117188 6.910156 -1.25 7.03125 -2.117188 L 5.125 -2.117188 C 5.007812 -1.664062 4.507812 -1.425781 3.84375 -1.425781 C 2.757812 -1.425781 2.261719 -1.914062 2.261719 -2.605469 L 6.816406 -2.605469 L 6.816406 -3.199219 C 6.816406 -5.019531 5.507812 -6.125 3.640625 -6.125 C 1.773438 -6.125 0.476562 -4.984375 0.476562 -3.082031 Z M 2.261719 -3.675781 C 2.261719 -4.128906 2.582031 -4.578125 3.640625 -4.578125 C 4.699219 -4.578125 5.03125 -4.128906 5.03125 -3.675781 Z M 2.261719 -3.675781 "/></g></g></g><g fill="#1c4475" fill-opacity="1"><g transform="translate(257.364574, 206.028426)"><g><path d="M 0.476562 -3.007812 C 0.476562 -1 1.84375 0.117188 3.757812 0.117188 C 5.398438 0.117188 6.898438 -0.773438 6.980469 -2.484375 L 5.078125 -2.484375 C 5.007812 -1.949219 4.519531 -1.546875 3.757812 -1.546875 C 2.855469 -1.546875 2.378906 -2.082031 2.378906 -3.007812 C 2.378906 -3.925781 2.855469 -4.460938 3.757812 -4.460938 C 4.519531 -4.460938 5.007812 -4.054688 5.078125 -3.519531 L 6.980469 -3.519531 C 6.898438 -5.234375 5.398438 -6.125 3.757812 -6.125 C 1.84375 -6.125 0.476562 -5.007812 0.476562 -3.007812 Z M 0.476562 -3.007812 "/></g></g></g><g fill="#1c4475" fill-opacity="1"><g transform="translate(264.816611, 206.028426)"><g><path d="M 5.007812 -6.125 C 3.722656 -6.125 2.972656 -5.28125 2.734375 -4.210938 L 2.261719 -4.210938 L 2.617188 -5.28125 L 2.617188 -8.742188 L 0.714844 -8.742188 L 0.714844 0 L 2.617188 0 L 2.617188 -2.222656 C 2.617188 -3.914062 3.292969 -4.460938 4.328125 -4.460938 C 5.246094 -4.460938 5.566406 -4.042969 5.566406 -2.949219 L 5.566406 0 L 7.46875 0 L 7.46875 -3.246094 C 7.46875 -5.101562 6.542969 -6.125 5.007812 -6.125 Z M 5.007812 -6.125 "/></g></g></g><g fill="#1c4475" fill-opacity="1"><g transform="translate(272.874803, 206.028426)"><g><path d="M 4.328125 -4.460938 C 5.246094 -4.460938 5.566406 -4.042969 5.566406 -2.949219 L 5.566406 0 L 7.46875 0 L 7.46875 -3.246094 C 7.46875 -5.101562 6.542969 -6.125 5.007812 -6.125 C 3.722656 -6.125 2.972656 -5.28125 2.734375 -4.210938 L 2.261719 -4.210938 L 2.617188 -5.28125 L 2.617188 -6.007812 L 0.714844 -6.007812 L 0.714844 0 L 2.617188 0 L 2.617188 -2.222656 C 2.617188 -3.914062 3.292969 -4.460938 4.328125 -4.460938 Z M 4.328125 -4.460938 "/></g></g></g><g fill="#1c4475" fill-opacity="1"><g transform="translate(280.932996, 206.028426)"><g><path d="M 0.476562 -3.007812 C 0.476562 -0.902344 1.972656 0.117188 3.867188 0.117188 C 5.746094 0.117188 7.242188 -0.902344 7.242188 -3.007812 C 7.242188 -5.101562 5.746094 -6.125 3.867188 -6.125 C 1.972656 -6.125 0.476562 -5.101562 0.476562 -3.007812 Z M 2.378906 -3.007812 C 2.378906 -4.007812 2.960938 -4.460938 3.867188 -4.460938 C 4.757812 -4.460938 5.339844 -4.007812 5.339844 -3.007812 C 5.339844 -2 4.757812 -1.546875 3.867188 -1.546875 C 2.960938 -1.546875 2.378906 -2 2.378906 -3.007812 Z M 2.378906 -3.007812 "/></g></g></g><g fill="#1c4475" fill-opacity="1"><g transform="translate(288.646517, 206.028426)"><g><path d="M 5.589844 0 L 5.589844 -1.664062 L 3.925781 -1.664062 L 3.925781 -7.828125 C 3.925781 -8.492188 3.554688 -8.851562 2.890625 -8.824219 L 0.59375 -8.742188 L 0.59375 -7.078125 L 2.023438 -7.148438 L 2.023438 -1.664062 L 0.355469 -1.664062 L 0.355469 0 Z M 5.589844 0 "/></g></g></g><g fill="#1c4475" fill-opacity="1"><g transform="translate(294.470285, 206.028426)"><g><path d="M 0.476562 -3.007812 C 0.476562 -0.902344 1.972656 0.117188 3.867188 0.117188 C 5.746094 0.117188 7.242188 -0.902344 7.242188 -3.007812 C 7.242188 -5.101562 5.746094 -6.125 3.867188 -6.125 C 1.972656 -6.125 0.476562 -5.101562 0.476562 -3.007812 Z M 2.378906 -3.007812 C 2.378906 -4.007812 2.960938 -4.460938 3.867188 -4.460938 C 4.757812 -4.460938 5.339844 -4.007812 5.339844 -3.007812 C 5.339844 -2 4.757812 -1.546875 3.867188 -1.546875 C 2.960938 -1.546875 2.378906 -2 2.378906 -3.007812 Z M 2.378906 -3.007812 "/></g></g></g><g fill="#1c4475" fill-opacity="1"><g transform="translate(302.183805, 206.028426)"><g><path d="M 7.753906 -6.007812 C 7.21875 -6.007812 6.601562 -5.949219 6.246094 -5.484375 C 5.613281 -5.949219 4.78125 -6.125 3.867188 -6.125 C 1.972656 -6.125 0.476562 -5.363281 0.476562 -3.78125 C 0.476562 -1.808594 2.796875 -1.488281 4.996094 -2.273438 L 4.996094 -1.796875 C 3.902344 -1.535156 2.664062 -1.390625 1.296875 -1.25 L 1.5 -0.179688 C 3.34375 -0.488281 5.496094 -0.878906 5.496094 0 C 5.496094 0.652344 4.757812 0.714844 0.867188 0.714844 L 0.867188 2.378906 C 5.328125 2.378906 7.410156 2.175781 7.410156 0.40625 C 7.410156 -0.867188 6.136719 -1.226562 4.769531 -1.140625 C 6.421875 -1.699219 7.480469 -2.414062 7.480469 -3.542969 C 7.480469 -3.867188 7.386719 -4.140625 7.316406 -4.234375 C 7.480469 -4.339844 7.695312 -4.339844 7.875 -4.339844 L 8.277344 -4.339844 L 8.277344 -6.007812 Z M 3.984375 -2.867188 C 2.84375 -2.867188 2.378906 -3.152344 2.378906 -3.664062 C 2.378906 -4.164062 2.84375 -4.460938 3.984375 -4.460938 C 5.125 -4.460938 5.578125 -4.164062 5.578125 -3.664062 C 5.578125 -3.152344 5.125 -2.867188 3.984375 -2.867188 Z M 3.984375 -2.867188 "/></g></g></g><g fill="#1c4475" fill-opacity="1"><g transform="translate(310.574778, 206.028426)"><g><path d="M 4.292969 -2.699219 L 4.292969 -1.75 L 3.816406 -1.75 L 3.816406 -2.699219 L 2.496094 -6.007812 L 0.355469 -6.007812 L 3.105469 -0.355469 L 3.105469 0.785156 L 1.046875 0.75 L 1.046875 2.414062 L 3.984375 2.496094 C 4.640625 2.523438 5.007812 2.164062 5.007812 1.5 L 5.007812 -0.355469 L 7.753906 -6.007812 L 5.601562 -6.007812 Z M 4.292969 -2.699219 "/></g></g></g><g fill="#1c4475" fill-opacity="1"><g transform="translate(153.154346, 190.514987)"><g><path d="M 1.40625 -9.929688 C 1.40625 -4.132812 5.289062 0.28125 11.585938 0.28125 C 17.128906 0.28125 20.785156 -2.757812 21.375 -7.679688 L 16.875 -7.679688 C 16.425781 -5.0625 14.34375 -3.65625 11.644531 -3.65625 C 8.183594 -3.65625 5.90625 -5.820312 5.90625 -9.929688 C 5.90625 -14.007812 8.183594 -16.171875 11.644531 -16.171875 C 14.34375 -16.171875 16.425781 -14.792969 16.875 -12.179688 L 21.375 -12.179688 C 20.785156 -17.070312 17.128906 -20.109375 11.585938 -20.109375 C 5.289062 -20.109375 1.40625 -15.695312 1.40625 -9.929688 Z M 1.40625 -9.929688 "/></g></g></g><g fill="#1c4475" fill-opacity="1"><g transform="translate(181.983768, 190.514987)"><g><path d="M 1.40625 -9.929688 C 1.40625 -4.132812 5.230469 0.28125 11.53125 0.28125 C 17.804688 0.28125 21.628906 -4.132812 21.628906 -9.929688 C 21.628906 -15.695312 17.804688 -20.109375 11.53125 -20.109375 C 5.230469 -20.109375 1.40625 -15.695312 1.40625 -9.929688 Z M 5.90625 -9.929688 C 5.90625 -13.726562 7.789062 -16.171875 11.53125 -16.171875 C 15.273438 -16.171875 17.128906 -13.726562 17.128906 -9.929688 C 17.128906 -6.101562 15.273438 -3.65625 11.53125 -3.65625 C 7.789062 -3.65625 5.90625 -6.101562 5.90625 -9.929688 Z M 5.90625 -9.929688 "/></g></g></g><g fill="#1c4475" fill-opacity="1"><g transform="translate(211.06631, 190.514987)"><g><path d="M 16.820312 -3.9375 L 15.554688 -3.9375 L 10.546875 -19.828125 L 1.6875 -19.828125 L 1.6875 0 L 6.1875 0 L 6.1875 -15.890625 L 7.453125 -15.890625 L 12.460938 0 L 21.320312 0 L 21.320312 -19.828125 L 16.820312 -19.828125 Z M 16.820312 -3.9375 "/></g></g></g><g fill="#1c4475" fill-opacity="1"><g transform="translate(240.120735, 190.514987)"><g><path d="M 16.820312 -3.9375 L 15.554688 -3.9375 L 10.546875 -19.828125 L 1.6875 -19.828125 L 1.6875 0 L 6.1875 0 L 6.1875 -15.890625 L 7.453125 -15.890625 L 12.460938 0 L 21.320312 0 L 21.320312 -19.828125 L 16.820312 -19.828125 Z M 16.820312 -3.9375 "/></g></g></g><g fill="#1c4475" fill-opacity="1"><g transform="translate(269.175159, 190.514987)"><g><path d="M 1.40625 -9.929688 C 1.40625 -4.132812 5.230469 0.28125 11.53125 0.28125 C 17.804688 0.28125 21.628906 -4.132812 21.628906 -9.929688 C 21.628906 -15.695312 17.804688 -20.109375 11.53125 -20.109375 C 5.230469 -20.109375 1.40625 -15.695312 1.40625 -9.929688 Z M 5.90625 -9.929688 C 5.90625 -13.726562 7.789062 -16.171875 11.53125 -16.171875 C 15.273438 -16.171875 17.128906 -13.726562 17.128906 -9.929688 C 17.128906 -6.101562 15.273438 -3.65625 11.53125 -3.65625 C 7.789062 -3.65625 5.90625 -6.101562 5.90625 -9.929688 Z M 5.90625 -9.929688 "/></g></g></g><g fill="#1c4475" fill-opacity="1"><g transform="translate(298.257707, 190.514987)"><g><path d="M 6.1875 0 L 6.1875 -6.976562 L 13.949219 -6.976562 L 13.949219 0 L 18.449219 0 L 18.449219 -6.328125 C 18.449219 -7.875 17.605469 -8.71875 16.058594 -8.71875 L 13.164062 -8.71875 L 13.164062 -9.84375 C 15.554688 -10.125 18.195312 -11.023438 18.195312 -14.289062 C 18.195312 -18.730469 14.089844 -19.828125 9.367188 -19.828125 L 1.6875 -19.828125 L 1.6875 0 Z M 6.1875 -15.890625 L 9.367188 -15.890625 C 12.039062 -15.890625 13.695312 -15.890625 13.695312 -13.386719 C 13.695312 -10.914062 12.039062 -10.914062 9.367188 -10.914062 L 6.1875 -10.914062 Z M 6.1875 -15.890625 "/></g></g></g></svg>